<svg id="Layer_1" data-name="Layer 1" xmlns="http://www.w3.org/2000/svg" viewBox="0 0 1756.05 1828.96"><defs><style>.cls-1{fill:none;stroke:#231f20;stroke-miterlimit:10;}</style></defs><polygon class="cls-1" points="1261.44 1587.67 1170.49 1405.77 1099.03 1182.71 964.76 1057.11 503.49 758.26 172.16 561.19 46.56 459.41 83.37 517.88 111.53 554.7 11.91 496.23 98.53 582.85 22.74 554.7 109.36 636.99 59.55 626.16 139.68 706.29 120.19 708.45 254.45 847.05 343.24 938 475.34 1080.93 486.17 1113.41 557.63 1176.21 557.63 1213.03 577.12 1234.69 592.28 1260.67 618.27 1303.98 624.77 1327.81 636.68 1349.46 636.68 1384.11 663.75 1410.1 689.73 1410.1 681.07 1438.25 696.23 1464.24 707.32 1492.39 743.87 1522.71 748.2 1561.69 772.02 1568.18 791.51 1617.99 791.51 1648.31 800.18 1693.79 824 1728.43 1261.44 1728.43 1319.32 1717.61 1261.44 1587.67"/><polygon class="cls-1" points="1659.65 1191.82 1568.7 1009.91 1497.23 786.86 1362.97 661.25 901.7 362.4 570.37 165.34 444.77 63.56 481.58 122.03 509.73 158.84 410.12 100.37 496.74 186.99 420.94 158.84 507.57 241.13 457.76 230.3 537.89 310.43 518.4 312.6 652.66 451.19 741.45 542.15 873.55 685.07 884.38 717.56 955.84 780.36 955.84 817.17 975.33 838.83 990.49 864.82 1016.48 908.13 1022.97 931.95 1034.88 953.6 1034.88 988.25 1061.95 1014.24 1087.94 1014.24 1079.28 1042.39 1094.44 1068.38 1105.52 1096.53 1142.08 1126.85 1146.41 1165.83 1170.23 1172.33 1189.72 1222.13 1189.72 1252.45 1198.38 1297.93 1222.2 1332.58 1659.65 1332.58 1717.52 1321.75 1659.65 1191.82"/></svg>