<svg id="Layer_1" data-name="Layer 1" xmlns="http://www.w3.org/2000/svg" viewBox="0 0 1756.05 2614.69"><defs><style>.cls-1{fill:none;stroke:#231f20;stroke-miterlimit:10;}</style></defs><path class="cls-1" d="M98.53,513.69c1.33-3.87,40.43-8.42,80.86-7.09,29.25,1,61.44,2,96.83,0,34.95-2,28.06-4.42,105-13.13,47.47-5.37,58.63-5.41,85.35-11.48A619.42,619.42,0,0,0,529,463.93c11.34-3.88,15.77-5.73,55.8-21.33,17.26-6.73,28.37-11,35.91-14,15.24-5.89,15.86-6.07,23.18-9,13-5.28,22.2-9.2,30-12.69,15-6.68,25.22-11.77,48.74-21.78,43.61-18.55,65.41-27.82,95.19-36.1,11.19-3.12,14-3.47,95.19-18.06,55.76-10,83.78-15.06,90.27-16.41,17.89-3.72,30.81-6.74,40.74-9.16,24.74-6,31-8.39,49.52-8.89,12.56-.35,35.18,2.5,80.42,8.2,15.36,1.94,31.16,3.94,50.26,7,5.4.87,11,1.81,17,2.86,7.46,1.31,14,2.53,20.74,3.86,10.48,2.06,21.37,4.37,36.71,7.63,38.68,8.21,58,12.31,72.21,16.41,22.49,6.5,44.89,14.54,59.38,20,9.91,3.73,16.11,6.26,16.12,6.26h0s2.64,4.92,5.4,10l6.09,11.31h0c13.78,18.66,18,24.61,18,24.61,8.6,12,12.91,18,14.77,21.34s3.75,6.7,5.44,10.23c3.23,6.71,5.74,14,6,22.6a61.68,61.68,0,0,1-2.53,19.45c-1.91,6.08-4.89,10.87-9,11.73-3.58.75,1.74-10.09-2.2-13.67-1.77-1.6-5.51-1.21-9.44-.57-5.19.83-10.74,2.08-12.62-.27-.62-.79-11.75-2-20.78,1.69-9.43,3.85-15.49,9.09-15.69,9.54-5.28,12.12-156.68,113.25-180.53,123.09-122.69,50.61-237.42,48-300.34,41C861,651.1,768.81,621,768.85,620.83s11.23,2.3,11.23,2.3h0c-64.24,20.53-80.42,27.9-80.42,27.9-27,12.31-24.47,15.93-55.8,32.83-28.07,15.13-68,36.16-118.17,39.39-31,2-70.59-2.5-73.86-16.42-2.53-10.8,17.75-23.51,14.78-27.9-2.5-3.68-17.61,4.06-31.19,8.21-18.81,5.75-39.12,6-56.39,3-23.07-3.91-40.71-13.4-42.08-22.74-1.79-12.19,24.31-23.35,21.33-29.54-2.06-4.3-15.75-1-32.82,1.64-10.75,1.7-29,4.58-45.47,5.44-16.78.87-31.7-.36-35-7.08-4.51-9.33,16-24,11.49-31.18-3.43-5.4-18.07-1.66-31.09,1.23-10.19,2.26-19.39,4-21.43.41-3.69-6.51,23.25-18.59,19.83-24.07-1.63-2.6-8.74-1.79-17,.72-6.05,1.84-37.23,5.64-39.73,2.4-1.33-1.72-19.33-6.62-18.35-11,1-4.59,21.94-10.7,27.44-13.57,10.09-5.24,30.72-2.49,29.2-10.37-2.33-12.07-48.54-4.26-64-10.07C119.91,534.29,94.73,524.71,98.53,513.69Z"/><path class="cls-1" d="M98.53,2080.49c1.33-3.87,40.43-8.41,80.86-7.08,29.25,1,61.44,2,96.83,0,34.95-2,28.06-4.43,105-13.13,47.47-5.37,58.63-5.42,85.35-11.49A619.42,619.42,0,0,0,529,2030.73c11.34-3.87,15.77-5.73,55.8-21.33,17.26-6.73,28.37-11,35.91-14,15.24-5.89,15.86-6.07,23.18-9,13-5.28,22.2-9.2,30-12.69,15-6.68,25.22-11.77,48.74-21.77,43.61-18.55,65.41-27.83,95.19-36.11,11.19-3.11,14-3.47,95.19-18.06,55.76-10,83.78-15.06,90.27-16.41,17.89-3.72,30.81-6.73,40.74-9.16,24.74-6,31-8.38,49.52-8.89,12.56-.34,35.18,2.51,80.42,8.21,15.36,1.93,31.16,3.94,50.26,7,5.4.86,11,1.8,17,2.85,7.46,1.31,14,2.54,20.74,3.86,10.48,2.07,21.37,4.38,36.71,7.63,38.68,8.21,58,12.32,72.21,16.41,22.49,6.5,44.89,14.54,59.38,20,9.91,3.73,16.11,6.26,16.12,6.26h0s2.64,4.92,5.4,10l6.09,11.31h0c13.78,18.66,18,24.62,18,24.62,8.6,12,12.91,18,14.77,21.33s3.75,6.71,5.44,10.23c3.23,6.72,5.74,14,6,22.6a61.68,61.68,0,0,1-2.53,19.45c-1.91,6.08-4.89,10.87-9,11.73-3.58.76,1.74-10.09-2.2-13.66-1.77-1.61-5.51-1.21-9.44-.58-5.19.83-10.74,2.08-12.62-.27-.62-.79-11.75-2-20.78,1.69-9.43,3.85-15.49,9.09-15.69,9.54-5.28,12.12-156.68,113.25-180.53,123.09-122.69,50.61-237.42,48-300.34,41-88.14-9.78-180.32-39.87-180.28-40,0,0-100.76,6.66-154.6,3.9-44.94-2.3-121.08-8.11-245.83-15.07-105.7-5.9-200.85-21.69-201.28-22.25-1.33-1.72-19.33-6.62-18.35-11,1-4.58,21.94-10.7,27.44-13.56C186.32,2124.39,94.73,2091.51,98.53,2080.49Z"/><polygon class="cls-1" points="1252.56 931.74 1252.56 903.19 1181.45 881.23 1096.12 881.23 800.01 890.46 800.01 995.83 783.61 995.83 783.61 890.97 630.11 895.75 324.75 954.17 329.41 996.08 456.15 1012.14 347.83 1084.61 370.42 1122.38 416.76 1122.38 472.56 1092.03 421.14 1142.53 383.95 1174.37 392.7 1213.89 429.89 1224.87 483.5 1183.15 488.97 1206.21 457.24 1236.95 447.4 1272.08 471.46 1295.14 509.75 1295.14 548.04 1265.5 562.26 1256.71 551.32 1329.17 560.08 1374.19 599.46 1374.19 630.11 1353.33 657.44 1323.68 664 1366.5 674.94 1400.54 696.82 1407.13 730.74 1388.46 736.2 1352.23 748.24 1336.86 756.99 1379.68 773.4 1393.95 812.78 1395.05 843.41 1380.78 849.98 1337.96 858.73 1312.71 876.23 1323.68 876.23 1343.45 898.11 1377.48 923.27 1376.38 939.68 1354.43 952.81 1324.78 952.81 1287.45 967.03 1286.36 983.44 1305.02 1010.79 1319.29 1046.89 1305.02 1062.21 1279.77 1062.21 1240.24 1062.21 1222.68 1080.81 1242.44 1121.28 1236.95 1144.26 1211.7 1139.88 1175.47 1104.87 1106.3 1078.62 1068.97 1115.81 1076.66 1159.57 1098.62 1186.92 1096.42 1221.93 1048.11 1186.92 1019.57 1125.66 969.07 1099.4 952.6 1208.8 955.89 1252.56 931.74"/></svg>